<svg width="24" height="24" viewBox="0 0 24 24" fill="none" xmlns="http://www.w3.org/2000/svg">
<path fill-rule="evenodd" clip-rule="evenodd" d="M12.5 3.5C7.52944 3.5 3.5 7.52944 3.5 12.5C3.5 17.4706 7.52944 21.5 12.5 21.5C17.4706 21.5 21.5 17.4706 21.5 12.5C21.5 10.1131 20.5518 7.82387 18.864 6.13604C17.1761 4.44821 14.8869 3.5 12.5 3.5ZM4.5 12.5C4.5 8.08172 8.08172 4.5 12.5 4.5C14.6217 4.5 16.6566 5.34285 18.1569 6.84315C19.6571 8.34344 20.5 10.3783 20.5 12.5C20.5 16.9183 16.9183 20.5 12.5 20.5C8.08172 20.5 4.5 16.9183 4.5 12.5ZM15.459 15.4594C15.5914 15.3271 15.5919 15.1126 15.4601 14.9796L12.8397 12.3591V8.42C12.8397 8.23223 12.6874 8.08 12.4997 8.08C12.3119 8.08 12.1597 8.23223 12.1597 8.42L12.1599 12.5011C12.1602 12.5892 12.1949 12.6737 12.2566 12.7365L12.2592 12.7404L14.9792 15.4604C15.1121 15.5922 15.3266 15.5917 15.459 15.4594Z" fill="#333333"/>
</svg>
