<svg width="24" height="24" viewBox="0 0 24 24" fill="none" xmlns="http://www.w3.org/2000/svg">
<path fill-rule="evenodd" clip-rule="evenodd" d="M13.973 6H2.40866C2.23177 6 2.0991 6.13267 2.0991 6.30956V14.6014C2.0991 14.7783 2.23177 14.911 2.40866 14.911H4.17759C4.33237 14.911 4.46504 14.8004 4.48715 14.6456C4.55348 14.314 4.75249 14.0265 4.99571 13.8054L5.01782 13.7833C5.26105 13.5843 5.59273 13.4737 5.94651 13.4737C6.3003 13.4737 6.63197 13.6064 6.8752 13.8054C7.14054 14.0265 7.31743 14.314 7.40588 14.6456C7.42799 14.8004 7.56066 14.8889 7.71544 14.8889H13.9951C14.172 14.8889 14.3047 14.7562 14.3047 14.5793V6.30956C14.2826 6.13267 14.1278 6 13.973 6ZM2.69611 6.61912H13.6413V14.2918H7.91444C7.78177 13.9159 7.53855 13.5843 7.25109 13.341C6.89731 13.0536 6.43297 12.8767 5.9244 12.8767C5.43795 12.8767 4.9736 13.0536 4.61982 13.341L4.59771 13.3632C4.28814 13.6064 4.06703 13.9381 3.93436 14.314H2.71822V6.61912H2.69611Z" fill="black"/>
<path fill-rule="evenodd" clip-rule="evenodd" d="M18.9486 10.6434L18.042 7.92369C17.9978 7.79102 17.8872 7.70258 17.7546 7.70258H13.9514C13.7745 7.70258 13.6418 7.83525 13.6418 8.01214V14.6014C13.6418 14.7783 13.7745 14.9109 13.9514 14.9109H15.6761C15.8309 14.9109 15.9635 14.8004 15.9857 14.6456C16.052 14.3139 16.251 14.0265 16.4942 13.8054C16.7596 13.6064 17.0691 13.4737 17.4229 13.4737C17.7767 13.4737 18.1084 13.6064 18.3516 13.8054C18.6169 14.0265 18.7938 14.3139 18.8823 14.6456C18.9044 14.8004 19.037 14.8888 19.1918 14.8888H21.6904C21.8673 14.8888 22 14.7562 22 14.5793V12.0586C22 11.9259 21.9116 11.7932 21.7789 11.749L18.9486 10.6434ZM17.5335 8.34381L18.4179 10.9751C18.44 11.0635 18.5064 11.1299 18.5948 11.1741L21.403 12.2797V14.2918H19.4572C19.3245 13.9159 19.0813 13.5843 18.7938 13.341C18.44 13.0536 17.9757 12.8767 17.4671 12.8767C16.9586 12.8767 16.4942 13.0536 16.1404 13.341C15.8309 13.5843 15.6098 13.9159 15.4771 14.2918H14.3052V8.3217H17.5335V8.34381Z" fill="black"/>
<path fill-rule="evenodd" clip-rule="evenodd" d="M18.7275 11.1962C18.9044 11.1962 19.0371 11.0635 19.0371 10.8866C19.0371 10.7098 18.9044 10.5771 18.7275 10.5771H13.9736C13.7967 10.5771 13.664 10.7098 13.664 10.8866C13.664 11.0635 13.7967 11.1962 13.9736 11.1962H18.7275Z" fill="black"/>
<path fill-rule="evenodd" clip-rule="evenodd" d="M17.4447 12.8546C16.8698 12.8546 16.3391 13.0978 15.9411 13.4737L15.919 13.4958C15.5431 13.8717 15.322 14.4024 15.322 14.9773C15.322 15.5522 15.5652 16.0829 15.9411 16.4809C16.317 16.8568 16.8477 17.1 17.4447 17.1C18.0196 17.1 18.5503 16.8568 18.9483 16.4809C19.3242 16.105 19.5674 15.5743 19.5674 14.9773C19.5674 14.4024 19.3242 13.8717 18.9483 13.4737C18.5724 13.0978 18.0417 12.8546 17.4447 12.8546ZM16.4054 13.9159C16.6708 13.6506 17.0467 13.4737 17.4668 13.4737C17.8869 13.4737 18.2628 13.6506 18.5281 13.9159C18.7935 14.1813 18.9704 14.5572 18.9704 14.9773C18.9704 15.3974 18.7935 15.7733 18.5281 16.0387C18.2628 16.304 17.8869 16.4809 17.4668 16.4809C17.0467 16.4809 16.6708 16.304 16.4054 16.0387C16.1401 15.7733 15.9632 15.3974 15.9632 14.9773C15.9632 14.5793 16.118 14.2034 16.4054 13.9159Z" fill="black"/>
<path fill-rule="evenodd" clip-rule="evenodd" d="M5.92514 12.8546C5.35024 12.8546 4.81956 13.0978 4.42155 13.4737L4.39944 13.4958C4.02354 13.8717 3.80243 14.4024 3.80243 14.9773C3.80243 15.5522 4.04566 16.0829 4.42155 16.4809C4.79745 16.8568 5.32813 17.1 5.92514 17.1C6.50004 17.1 7.03072 16.8568 7.42873 16.4809C7.80462 16.105 8.04785 15.5743 8.04785 14.9773C8.04785 14.4024 7.80462 13.8717 7.42873 13.4737C7.03072 13.0978 6.50004 12.8546 5.92514 12.8546ZM4.86378 13.9159C5.12912 13.6506 5.50502 13.4737 5.92514 13.4737C6.34526 13.4737 6.72116 13.6506 6.9865 13.9159C7.25183 14.1813 7.42873 14.5572 7.42873 14.9773C7.42873 15.3974 7.25183 15.7733 6.9865 16.0387C6.72116 16.304 6.34526 16.4809 5.92514 16.4809C5.50502 16.4809 5.12912 16.304 4.86378 16.0387C4.59845 15.7733 4.42155 15.3974 4.42155 14.9773C4.42155 14.5793 4.59845 14.2034 4.86378 13.9159Z" fill="black"/>
</svg>
