<svg width="48" height="48" viewBox="0 0 48 48" fill="none" xmlns="http://www.w3.org/2000/svg">
<path d="M20.6481 14.7504L22.8371 12.5637V19.7939C22.8371 20.7108 23.5786 21.4515 24.4965 21.4515C25.4145 21.4515 26.1559 20.7108 26.1559 19.7939V12.599L28.3449 14.7856C28.6626 15.1031 29.0863 15.2794 29.51 15.2794C29.9337 15.2794 30.3573 15.1031 30.6751 14.7856C31.3106 14.1508 31.3106 13.0927 30.6751 12.4579L25.6616 7.44968C25.0614 6.85011 23.9669 6.85011 23.3314 7.44968L18.3179 12.4579C17.6824 13.0927 17.6824 14.1508 18.3179 14.7856C18.9888 15.4205 20.0126 15.4205 20.6481 14.7504Z" fill="#D84727"/>
<path d="M38.3368 24.8022C37.8778 24.3084 32.7231 18.8064 32.7231 18.8064C32.0876 18.1363 31.0637 18.1011 30.3929 18.7359C29.7221 19.3707 29.6868 20.3935 30.3223 21.0637L33.3233 24.2379H15.6702L18.6713 21.0637C19.3068 20.3935 19.2715 19.3707 18.6007 18.7359C17.9298 18.1363 16.906 18.1363 16.2704 18.8064C16.2704 18.8064 11.0451 24.379 10.6568 24.8022C10.2684 25.1901 9.84473 26.0013 10.0566 26.742L13.3753 39.0156C13.6225 39.8621 14.3992 40.4617 15.2819 40.4617H33.7117C34.5943 40.4617 35.3711 39.8621 35.6182 39.0156L38.937 26.742C39.1488 26.0013 38.7958 25.2959 38.3368 24.8022ZM19.8364 35.2418C19.8364 35.8414 19.3421 36.3352 18.7419 36.3352C18.1417 36.3352 17.6474 35.8414 17.6474 35.2418V29.493C17.6474 28.8934 18.1417 28.3996 18.7419 28.3996C19.3421 28.3996 19.8364 28.8934 19.8364 29.493V35.2418ZM25.5913 35.2418C25.5913 35.8414 25.097 36.3352 24.4968 36.3352C23.8966 36.3352 23.4023 35.8414 23.4023 35.2418V29.493C23.4023 28.8934 23.8966 28.3996 24.4968 28.3996C25.097 28.3996 25.5913 28.8934 25.5913 29.493V35.2418ZM31.3462 35.2418C31.3462 35.8414 30.8519 36.3352 30.2517 36.3352C29.6515 36.3352 29.1572 35.8414 29.1572 35.2418V29.493C29.1572 28.8934 29.6515 28.3996 30.2517 28.3996C30.8519 28.3996 31.3462 28.8934 31.3462 29.493V35.2418Z" fill="#D84727"/>
</svg>
