<svg width="48" height="48" viewBox="0 0 48 48" fill="none" xmlns="http://www.w3.org/2000/svg">
<path fill-rule="evenodd" clip-rule="evenodd" d="M37.2 12H10.8C9.80589 12 9 12.8059 9 13.8V34.2C9 35.1941 9.80589 36 10.8 36H37.2C38.1941 36 39 35.1941 39 34.2V13.8C39 12.8059 38.1941 12 37.2 12ZM37.8 34.2C37.8 34.5314 37.5313 34.8 37.2 34.8H10.8C10.4686 34.8 10.2 34.5314 10.2 34.2V13.8C10.2 13.4687 10.4686 13.2 10.8 13.2H37.2C37.5313 13.2 37.8 13.4687 37.8 13.8V34.2ZM16.7999 19.2C17.1312 19.2 17.3999 18.9314 17.3999 18.6C17.3999 18.2686 17.1312 18 16.7999 18H13.1999C12.8685 18 12.5999 18.2686 12.5999 18.6C12.5999 18.9314 12.8685 19.2 13.1999 19.2H16.7999ZM23.9999 19.2H19.1999C18.8685 19.2 18.5999 18.9314 18.5999 18.6C18.5999 18.2686 18.8685 18 19.1999 18H23.9999C24.3313 18 24.5999 18.2686 24.5999 18.6C24.5999 18.9314 24.3313 19.2 23.9999 19.2ZM28.8002 24.76C29.5029 24.2656 30.341 24.0002 31.2002 24C33.0093 23.999 34.6155 25.1571 35.186 26.8738C35.7566 28.5905 35.1631 30.4797 33.7134 31.5617C32.2636 32.6438 30.2837 32.6754 28.8002 31.6401C27.0547 32.8627 24.6701 32.5843 23.2533 30.9923C21.8364 29.4004 21.8364 26.9996 23.2533 25.4077C24.6701 23.8158 27.0547 23.5373 28.8002 24.76ZM26.4 31.2C24.7432 31.2 23.4 29.8568 23.4 28.2C23.4 26.5431 24.7432 25.2 26.4 25.2C28.0569 25.2 29.4 26.5431 29.4 28.2C29.3981 29.8561 28.0561 31.1981 26.4 31.2ZM29.6927 30.7787C30.1485 31.0514 30.669 31.1969 31.2001 31.2C32.8569 31.2 34.2001 29.8568 34.2001 28.2C34.2001 26.5431 32.8569 25.2 31.2001 25.2C30.669 25.203 30.1485 25.3485 29.6927 25.6212C30.9025 27.1275 30.9025 29.2724 29.6927 30.7787Z" fill="#999999"/>
<path d="M42 15C42 18.3137 39.3137 21 36 21C32.6863 21 30 18.3137 30 15C30 11.6863 32.6863 9 36 9C39.3137 9 42 11.6863 42 15Z" fill="#999999"/>
<path fill-rule="evenodd" clip-rule="evenodd" d="M36 9.5C32.9624 9.5 30.5 11.9624 30.5 15C30.5 18.0376 32.9624 20.5 36 20.5C39.0376 20.5 41.5 18.0376 41.5 15C41.5 11.9624 39.0376 9.5 36 9.5ZM29.5 15C29.5 11.4101 32.4101 8.5 36 8.5C39.5899 8.5 42.5 11.4101 42.5 15C42.5 18.5899 39.5899 21.5 36 21.5C32.4101 21.5 29.5 18.5899 29.5 15Z" fill="white"/>
<path fill-rule="evenodd" clip-rule="evenodd" d="M39.3 12.6C39.5209 12.7657 39.5657 13.0791 39.4 13.3L36.4 17.3C36.2343 17.5209 35.9209 17.5657 35.7 17.4L33.7 15.9C33.4791 15.7343 33.4343 15.4209 33.6 15.2C33.7657 14.9791 34.0791 14.9343 34.3 15.1L35.9 16.3L38.6 12.7C38.7657 12.4791 39.0791 12.4343 39.3 12.6Z" fill="white"/>
</svg>
